<svg width="118" height="35" viewBox="0 0 118 35" fill="none" xmlns="http://www.w3.org/2000/svg">
<path fill-rule="evenodd" clip-rule="evenodd" d="M17.2848 0C26.8312 0 34.5696 7.83563 34.5696 17.5C34.5696 27.1651 26.8312 35 17.2848 35C7.73847 35 0 27.1651 0 17.5C0 7.83635 7.73847 0 17.2848 0ZM28.9362 9.84958C27.8349 8.89729 13.4243 5.20844 12.3244 5.59635C11.9297 5.96458 11.7184 8.75 11.6878 11.7607C8.65479 11.0367 6.04058 10.5284 5.59626 10.6838C4.74404 11.4815 4.74404 23.5827 5.5948 24.8143C6.69468 25.7673 21.1074 29.4583 22.2073 29.0697C22.6014 28.7007 22.8141 25.9153 22.8439 22.9053C25.8762 23.6294 28.4912 24.1376 28.9355 23.9808C29.7884 23.186 29.7906 11.0855 28.9355 9.84958H28.9362ZM64.2226 7.58333C68.4327 7.58333 71.7739 9.88167 71.7739 15.8747V18.9489C71.7739 24.9411 68.4327 27.2395 64.2226 27.2395C60.0139 27.2395 56.6713 24.9411 56.6713 18.9489V15.874C56.6713 9.88021 60.0139 7.5826 64.2226 7.5826V7.58333ZM91.7763 7.81594C92.0298 7.81594 92.2338 8.02229 92.2855 8.28042L95.4737 23.1846C95.5261 23.469 95.6011 23.571 95.8313 23.571C96.0615 23.571 96.1372 23.469 96.1889 23.1846L99.3793 8.28042C99.4288 8.02229 99.608 7.81594 99.863 7.81594H103.434C103.689 7.81594 103.868 7.97052 103.868 8.22865C103.868 8.2549 103.843 8.30667 103.843 8.35844L100.041 24.3709C99.4551 26.8523 97.5926 27.2402 95.8313 27.2402C94.0715 27.2402 92.1842 26.8523 91.5964 24.3717L87.7942 8.35844C87.7942 8.30667 87.7694 8.28042 87.7694 8.22865C87.7694 7.99677 87.9734 7.81594 88.2283 7.81594H91.7756H91.7763ZM111.675 7.58333C113.536 7.58333 116.113 7.89323 117.081 8.15208C117.285 8.20312 117.465 8.33219 117.465 8.61656V11.2255C117.465 11.4581 117.363 11.6645 117.031 11.6645H116.981C116.266 11.6134 113.305 11.3801 111.572 11.3801C110.117 11.3801 109.582 11.8198 109.582 12.7488C109.582 13.4721 109.913 13.8082 111.291 14.5571L114.555 16.3392C117.21 17.7858 118 19.4906 118 21.5826C118 24.3206 116.215 27.2402 111.037 27.2402C109.022 27.2402 107.515 27.0069 106.215 26.6715C105.96 26.5942 105.705 26.4381 105.705 26.1552V23.6235C105.705 23.2626 105.909 23.1328 106.164 23.1328H106.241C107.285 23.2364 110.093 23.4427 111.087 23.4427C112.848 23.4427 113.357 22.874 113.357 21.6344C113.357 20.8855 112.999 20.4721 111.675 19.6715L108.154 17.554C105.78 16.1328 105.144 14.506 105.144 12.6204C105.144 9.77885 106.724 7.58333 111.675 7.58333ZM55.1169 7.81594C55.3974 7.81594 55.6523 8.02229 55.6523 8.30667V10.9667C55.6523 11.2518 55.3974 11.4581 55.1169 11.4581H50.984V26.4906C50.984 26.775 50.7538 27.0069 50.4741 27.0069H47.1308C46.8511 27.0069 46.6209 26.775 46.6209 26.4906V11.4574H42.4632C42.1814 11.4574 41.9534 11.251 41.9534 10.9659V8.30594C41.9534 8.02156 42.1814 7.81521 42.4632 7.81521H55.1169V7.81594ZM85.9069 7.81594C86.1873 7.81594 86.443 8.02229 86.443 8.30667V10.9667C86.443 11.2518 86.1873 11.4581 85.9069 11.4581H81.7747V26.4906C81.7747 26.775 81.5453 27.0069 81.2641 27.0069H77.9222C77.6418 27.0069 77.4124 26.775 77.4124 26.4906V11.4574H73.2532C72.9735 11.4574 72.7419 11.251 72.7419 10.9659V8.30594C72.7419 8.02156 72.9735 7.81521 73.254 7.81521H85.9069V7.81594ZM64.2226 11.4581C62.0811 11.4581 61.0854 12.775 61.0854 15.8747V18.9489C61.0854 22.0478 62.0811 23.3647 64.2226 23.3647C66.367 23.3647 67.386 22.0478 67.386 18.9489V15.874C67.386 12.775 66.3663 11.4574 64.2226 11.4574V11.4581ZM11.6886 11.7615C16.1653 12.8304 21.551 14.3719 22.208 14.9399C22.6684 15.6027 22.8796 19.4075 22.8447 22.906C18.3672 21.8364 12.9785 20.2949 12.323 19.7269C11.8656 19.0633 11.6543 15.2615 11.6893 11.7615H11.6886Z" fill="white"/>
</svg>
